<?xml version="1.0" encoding="utf-8"?>
<!-- Generator: Adobe Illustrator 15.1.0, SVG Export Plug-In . SVG Version: 6.00 Build 0)  -->
<!DOCTYPE svg PUBLIC "-//W3C//DTD SVG 1.1//EN" "http://www.w3.org/Graphics/SVG/1.1/DTD/svg11.dtd">
<svg version="1.1" id="Ebene_1" xmlns="http://www.w3.org/2000/svg" xmlns:xlink="http://www.w3.org/1999/xlink" x="0px" y="0px"
	 width="500px" height="500px" viewBox="0 0 500 500" enable-background="new 0 0 500 500" xml:space="preserve">
<radialGradient id="Outline_shape_2_" cx="126.6904" cy="99.1714" r="400.9953" fx="124.9287" fy="97.0523" gradientUnits="userSpaceOnUse">
	<stop  offset="0" style="stop-color:#ECECED"/>
	<stop  offset="0.2282" style="stop-color:#9F9F9F"/>
	<stop  offset="0.48" style="stop-color:#6C6C6C"/>
	<stop  offset="0.7802" style="stop-color:#535353"/>
	<stop  offset="1" style="stop-color:#505050"/>
</radialGradient>
<path id="Outline_shape_1_" fill="url(#Outline_shape_2_)" d="M251,60c50.751,0,98.465,19.763,134.351,55.649S441,199.249,441,250
	c0,50.751-19.764,98.464-55.649,134.351C349.465,420.236,301.751,440,251,440s-98.464-19.764-134.351-55.649
	C80.763,348.464,61,300.751,61,250c0-50.75,19.763-98.464,55.649-134.35C152.536,79.763,200.249,60,251,60 M251,40
	C135.02,40,41,134.02,41,250c0,115.981,94.02,210,210,210c115.98,0,210-94.02,210-210C461,134.02,366.98,40,251,40L251,40z"/>
<radialGradient id="SVGID_1_" cx="183.79" cy="169.1328" r="228.4491" fx="181.3843" fy="166.9143" gradientUnits="userSpaceOnUse">
	<stop  offset="0" style="stop-color:#D5C4E1"/>
	<stop  offset="0.1494" style="stop-color:#B087C2"/>
	<stop  offset="0.261" style="stop-color:#9A63B1"/>
	<stop  offset="0.3779" style="stop-color:#8847A2"/>
	<stop  offset="0.502" style="stop-color:#7A3097"/>
	<stop  offset="0.7895" style="stop-color:#6B178A"/>
	<stop  offset="1" style="stop-color:#691489"/>
</radialGradient>
<circle fill="url(#SVGID_1_)" cx="251" cy="250" r="170"/>
<path id="S" fill="#FFFFFF" d="M375.623,272.8c-7.563,0-13.875-2.425-16.881-8.89c-1.164-2.504-0.48-5.598,2.281-7.01
	c2.457-1.258,4.419,0.353,6.48,2.189c3.446,3.072,4.182,3.973,7.885,4.157c0.004,0,0.008,0,0.012,0
	c4.223-0.247,6.521-3.632,5.75-6.149c-0.777-2.535-1.453-2.523-7.928-4.697c-8.658-2.909-13.475-4.588-13.6-11.995
	c-0.131-7.779,4.651-13.39,12.404-13.905c7.471-0.497,15.799,1.217,17.437,7.548c0.691,2.673-0.915,5.401-3.589,6.093
	c-2.519,0.65-5.002-1.016-5.949-3.128c-1.803-1.638-5.967-2.913-8.503-1.013c-1.347,1.009-1.832,1.917-1.8,3.088
	c0.063,2.287,0.875,3.849,6.337,5.211c8.553,2.133,12.979,4.269,14.437,8.991c1.164,3.771,0.645,7.732-1.523,12.506
	C385.998,272.125,375.632,272.8,375.623,272.8z"/>
<path id="O" fill="#FFFFFF" d="M312.8,273c-12.544,0-22.75-10.497-22.75-23.4s10.206-23.4,22.75-23.4s22.75,10.497,22.75,23.4
	S325.344,273,312.8,273z M312.8,236.2c-7.03,0-12.75,6.011-12.75,13.4c0,7.388,5.72,13.4,12.75,13.4s12.75-6.012,12.75-13.4
	C325.55,242.211,319.83,236.2,312.8,236.2z"/>
<path id="S_1_" fill="#FFFFFF" d="M252,272.8c-7.563,0-13.875-2.425-16.881-8.89c-1.164-2.504-0.48-5.598,2.281-7.01
	c2.458-1.258,4.419,0.353,6.481,2.189c3.446,3.072,4.182,3.973,7.885,4.157c0.004,0,0.008,0,0.012,0
	c4.223-0.247,6.521-3.632,5.75-6.149c-0.777-2.535-1.453-2.523-7.927-4.697c-8.659-2.909-13.475-4.588-13.6-11.995
	c-0.131-7.779,4.651-13.39,12.404-13.905c7.471-0.497,15.799,1.217,17.437,7.548c0.691,2.673-0.915,5.401-3.589,6.093
	c-2.519,0.65-5.002-1.016-5.949-3.128c-1.803-1.638-5.967-2.913-8.503-1.013c-1.346,1.009-1.832,1.917-1.8,3.088
	c0.063,2.287,0.875,3.849,6.337,5.211c8.553,2.133,12.979,4.269,14.437,8.991c1.164,3.771,0.645,7.732-1.523,12.506
	C262.375,272.125,252.009,272.8,252,272.8z"/>
<path id="X" fill="#FFFFFF" d="M199.432,249.5l11.313-15.56c1.624-2.234,1.13-5.361-1.104-6.984
	c-2.233-1.623-5.361-1.13-6.984,1.104l-9.406,12.938l-9.406-12.938c-1.624-2.233-4.751-2.727-6.984-1.104
	c-2.233,1.624-2.728,4.75-1.104,6.984l11.313,15.56l-11.313,15.56c-1.624,2.233-1.13,5.36,1.104,6.984
	c0.888,0.646,1.917,0.956,2.937,0.956c1.545,0,3.07-0.714,4.048-2.06l9.406-12.938l9.406,12.938c0.979,1.346,2.502,2.06,4.048,2.06
	c1.02,0,2.049-0.311,2.937-0.956c2.233-1.624,2.728-4.751,1.104-6.984L199.432,249.5z"/>
<path id="A" fill="#FFFFFF" d="M153.386,266.009l-16.178-37.259c-0.958-1.812-2.917-2.875-4.908-2.875s-4.3,1.438-5.061,3.227
	l-16.025,36.907c-1.1,2.532,0.062,5.478,2.595,6.577c2.531,1.101,5.478-0.063,6.578-2.595l2.004-4.616h19.818l2.004,4.616
	c0.818,1.885,2.658,3.01,4.589,3.01c0.665,0,1.34-0.133,1.989-0.415C153.324,271.486,154.486,268.541,153.386,266.009z
	 M126.19,256.625l6.11-14.071l6.11,14.071H126.19z"/>
</svg>
